<svg xmlns="http://www.w3.org/2000/svg" width="100" height="100" viewBox="0 0 100 100">
  <metadata><?xpacket begin="﻿" id="W5M0MpCehiHzreSzNTczkc9d"?>
<x:xmpmeta xmlns:x="adobe:ns:meta/" x:xmptk="Adobe XMP Core 5.6-c138 79.159824, 2016/09/14-01:09:01        ">
   <rdf:RDF xmlns:rdf="http://www.w3.org/1999/02/22-rdf-syntax-ns#">
      <rdf:Description rdf:about=""/>
   </rdf:RDF>
</x:xmpmeta>
                                                                                                    
                                                                                                    
                                                                                                    
                                                                                                    
                                                                                                    
                                                                                                    
                                                                                                    
                                                                                                    
                                                                                                    
                                                                                                    
                                                                                                    
                                                                                                    
                                                                                                    
                                                                                                    
                                                                                                    
                                                                                                    
                                                                                                    
                                                                                                    
                                                                                                    
                                                                                                    
                           
<?xpacket end="w"?></metadata>
<defs>
    <style>
      .cls-1, .cls-2 {
        fill: #9c27b0;
      }

      .cls-1, .cls-11, .cls-12, .cls-13, .cls-14, .cls-3, .cls-5, .cls-7, .cls-8, .cls-9 {
        fill-rule: evenodd;
      }

      .cls-10, .cls-15, .cls-18, .cls-19, .cls-2, .cls-20, .cls-21, .cls-22, .cls-4, .cls-6 {
        stroke: #37474f;
        stroke-width: 1px;
      }

      .cls-3 {
        fill: #c8443c;
      }

      .cls-4 {
        fill: #f44336;
      }

      .cls-5, .cls-6 {
        fill: #00bcd4;
      }

      .cls-7 {
        fill: #479750;
      }

      .cls-8 {
        fill: #bf285e;
      }

      .cls-10, .cls-9 {
        fill: #795548;
      }

      .cls-11, .cls-20 {
        fill: #9e9e9e;
      }

      .cls-12, .cls-21 {
        fill: #ffeb3b;
      }

      .cls-13 {
        fill: #cddc39;
      }

      .cls-14 {
        fill: #ff9800;
      }

      .cls-15 {
        fill: #3f51b5;
      }

      .cls-16 {
        font-size: 10px;
      }

      .cls-16, .cls-17 {
        fill: #fff;
        font-family: "Maven Pro";
      }

      .cls-17 {
        font-size: 6px;
      }

      .cls-18 {
        fill: #4caf50;
      }

      .cls-19 {
        fill: #e91e63;
      }

      .cls-22 {
        fill: #b2c032;
      }
    </style>
  </defs>
  <g id="Artboard_1" data-name="Artboard 1">
    <path class="cls-1" d="M122.563,110.243l0.874-.486,25,45-0.874.486Z" transform="translate(-100 -100)"/>
    <path class="cls-1" d="M126.542,106.2l0.916-.4,22,50-0.916.4Z" transform="translate(-100 -100)"/>
    <path class="cls-1" d="M130.53,104.172l0.94-.344,19,52-0.94.344Z" transform="translate(-100 -100)"/>
    <path class="cls-1" d="M135.52,104.141l0.96-.282,15,51-0.96.282Z" transform="translate(-100 -100)"/>
    <path class="cls-1" d="M142.01,106.193l0.98-.2,10,48.813-0.98.2Z" transform="translate(-100 -100)"/>
    <circle class="cls-2" cx="23" cy="10" r="2"/>
    <path class="cls-3" d="M157.455,150.207l-0.91-.414,15-33,0.91,0.414Z" transform="translate(-100 -100)"/>
    <path class="cls-3" d="M153.9,159.985l-0.89-.605L177.1,117.015l0.89,0.605Z" transform="translate(-100 -100)"/>
    <path class="cls-3" d="M154.409,158.287l-0.818-.574,26-37,0.818,0.574Z" transform="translate(-100 -100)"/>
    <path class="cls-3" d="M155.387,158.317l-0.774-.634,27-33,0.774,0.634Z" transform="translate(-100 -100)"/>
    <circle class="cls-4" cx="72" cy="18" r="2"/>
    <circle id="Ellipse_4_copy" data-name="Ellipse 4 copy" class="cls-4" cx="77" cy="18" r="2"/>
    <circle id="Ellipse_4_copy_2" data-name="Ellipse 4 copy 2" class="cls-4" cx="81" cy="21" r="2"/>
    <circle id="Ellipse_4_copy_3" data-name="Ellipse 4 copy 3" class="cls-4" cx="83" cy="25" r="2"/>
    <path class="cls-5" d="M160.111,159.487l-0.222-.974,35-8,0.222,0.974Z" transform="translate(-100 -100)"/>
    <path class="cls-5" d="M157.126,162L157,161l41.872-5L199,157Z" transform="translate(-100 -100)"/>
    <path class="cls-5" d="M155.939,161.5l0.122-.992,41,5-0.122.992Z" transform="translate(-100 -100)"/>
    <path class="cls-5" d="M153.87,162.483l0.26-.966,41,11-0.26.966Z" transform="translate(-100 -100)"/>
    <path class="cls-5" d="M153.771,163.444l0.458-.888,31,16-0.458.888Z" transform="translate(-100 -100)"/>
    <path class="cls-5" d="M151.6,162.3l0.806-.594,14,19-0.806.594Z" transform="translate(-100 -100)"/>
    <circle class="cls-6" cx="95" cy="51" r="2"/>
    <circle id="Ellipse_5_copy_3" data-name="Ellipse 5 copy 3" class="cls-6" cx="94" cy="74" r="2"/>
    <circle id="Ellipse_5_copy_4" data-name="Ellipse 5 copy 4" class="cls-6" cx="84" cy="80" r="2"/>
    <circle id="Ellipse_5_copy_5" data-name="Ellipse 5 copy 5" class="cls-6" cx="67" cy="82" r="2"/>
    <path class="cls-7" d="M152.5,148.056l-0.994-.112,5-44,0.994,0.112Z" transform="translate(-100 -100)"/>
    <path class="cls-7" d="M163.844,102l1.146,0.185L152.156,160l-1.146-.185Z" transform="translate(-100 -100)"/>
    <path class="cls-7" d="M153.794,156.013l-0.8-.337,15.207-49.689,0.8,0.337Z" transform="translate(-100 -100)"/>
    <path class="cls-8" d="M159.192,155.462l-0.384-.924,41-17,0.383,0.924Z" transform="translate(-100 -100)"/>
    <path class="cls-8" d="M159.155,156.475l-0.31-.95,43-14,0.31,0.95Z" transform="translate(-100 -100)"/>
    <path class="cls-9" d="M115.981,148.827l0.572-.827,31.466,6.173-0.572.827Z" transform="translate(-100 -100)"/>
    <path class="cls-9" d="M152,156L151.8,157,115,154,115.2,153Z" transform="translate(-100 -100)"/>
    <path class="cls-9" d="M151,157v1H115v-1h36Z" transform="translate(-100 -100)"/>
    <circle class="cls-10" cx="16" cy="48" r="2"/>
    <circle id="Ellipse_8_copy" data-name="Ellipse 8 copy" class="cls-10" cx="14" cy="53" r="2"/>
    <circle id="Ellipse_8_copy_2" data-name="Ellipse 8 copy 2" class="cls-10" cx="15" cy="58" r="2"/>
    <path class="cls-11" d="M143.776,159.553l0.448,0.894-48,24-0.447-.894Z" transform="translate(-100 -100)"/>
    <path class="cls-11" d="M142.747,161.569l0.506,0.862-46,27-0.506-.862Z" transform="translate(-100 -100)"/>
    <path class="cls-11" d="M147.723,160.584l0.554,0.832-45,30-0.554-.832Z" transform="translate(-100 -100)"/>
    <path class="cls-11" d="M150.669,160.625l0.662,0.75-43,38-0.662-.75Z" transform="translate(-100 -100)"/>
    <path class="cls-11" d="M152.31,161.994l0.7,0.7L112.69,205.006l-0.7-.7Z" transform="translate(-100 -100)"/>
    <path class="cls-12" d="M150,165.015l1,0.119-3,35.851-1-.119Z" transform="translate(-100 -100)"/>
    <path class="cls-12" d="M151,162h1v38h-1V162Z" transform="translate(-100 -100)"/>
    <path class="cls-13" d="M147.232,152.557l-0.464.886-44-23,0.464-.886Z" transform="translate(-100 -100)"/>
    <path class="cls-13" d="M151,154.317l-0.694.694L103,123.683l0.694-.694Z" transform="translate(-100 -100)"/>
    <path class="cls-14" d="M157.287,156.41l-0.574-.82,50-35,0.574,0.82Z" transform="translate(-100 -100)"/>
    <circle class="cls-15" cx="51" cy="57" r="10"/>
    <text id="Vehicle_Crime" data-name="Vehicle Crime" class="cls-16" x="20" y="79">Vehicle Crime</text>
    <text id="Kings_Cross" data-name="Kings Cross" class="cls-17" x="54" y="36">Kings Cross</text>
    <text id="Holborn" class="cls-17" x="27" y="24">Holborn</text>
    <text id="Highgate" class="cls-17" x="48" y="15">Highgate</text>
    <text id="Frognal" class="cls-17" x="73" y="49">Frognal</text>
    <text id="Bloomsbury" class="cls-17" x="62" y="67">Bloomsbury</text>
    <text id="Primrose_Hill" data-name="Primrose Hill" class="cls-17" x="31" y="95">Primrose Hill</text>
    <text id="Covent_Garden" data-name="Covent Garden" class="cls-17" x="86" y="30">Covent Garden</text>
    <text id="Hampstead" class="cls-17" x="4" y="41">Hampstead</text>
    <text id="St._Giles" data-name="St. Giles" class="cls-17" x="18.714" y="55.572">St. Giles</text>
    <circle id="Ellipse_3_copy" data-name="Ellipse 3 copy" class="cls-2" cx="27" cy="6" r="2"/>
    <circle id="Ellipse_3_copy_2" data-name="Ellipse 3 copy 2" class="cls-2" cx="32" cy="4" r="2"/>
    <circle id="Ellipse_3_copy_3" data-name="Ellipse 3 copy 3" class="cls-2" cx="37" cy="4" r="2"/>
    <circle id="Ellipse_3_copy_4" data-name="Ellipse 3 copy 4" class="cls-2" cx="42" cy="5" r="2"/>
    <circle id="Ellipse_5_copy" data-name="Ellipse 5 copy" class="cls-6" cx="98" cy="57" r="2"/>
    <circle id="Ellipse_5_copy_2" data-name="Ellipse 5 copy 2" class="cls-6" cx="98" cy="67" r="2"/>
    <circle class="cls-18" cx="64" cy="3" r="2"/>
    <circle id="Ellipse_6_copy" data-name="Ellipse 6 copy" class="cls-18" cx="69" cy="6" r="2"/>
    <circle id="Ellipse_6_copy_2" data-name="Ellipse 6 copy 2" class="cls-18" cx="58" cy="4" r="2"/>
    <circle class="cls-19" cx="100" cy="38" r="2"/>
    <circle id="Ellipse_7_copy" data-name="Ellipse 7 copy" class="cls-19" cx="101" cy="43" r="2"/>
    <circle id="Ellipse_8_copy_5" data-name="Ellipse 8 copy 5" class="cls-20" cx="1" cy="93" r="2"/>
    <circle id="Ellipse_8_copy_6" data-name="Ellipse 8 copy 6" class="cls-20" cx="8" cy="100" r="2"/>
    <circle id="Ellipse_8_copy_10" data-name="Ellipse 8 copy 10" class="cls-21" cx="47" cy="100" r="2"/>
    <circle id="Ellipse_8_copy_11" data-name="Ellipse 8 copy 11" class="cls-21" cx="51" cy="101" r="2"/>
    <circle id="Ellipse_8_copy_8" data-name="Ellipse 8 copy 8" class="cls-22" cx="3" cy="30" r="2"/>
    <circle id="Ellipse_8_copy_9" data-name="Ellipse 8 copy 9" class="cls-22" cx="4" cy="24" r="2"/>
  </g>
</svg>
