<svg xmlns="http://www.w3.org/2000/svg" width="100" height="100" viewBox="0 0 100 100">
  <metadata><?xpacket begin="﻿" id="W5M0MpCehiHzreSzNTczkc9d"?>
<x:xmpmeta xmlns:x="adobe:ns:meta/" x:xmptk="Adobe XMP Core 5.6-c138 79.159824, 2016/09/14-01:09:01        ">
   <rdf:RDF xmlns:rdf="http://www.w3.org/1999/02/22-rdf-syntax-ns#">
      <rdf:Description rdf:about=""/>
   </rdf:RDF>
</x:xmpmeta>
                                                                                                    
                                                                                                    
                                                                                                    
                                                                                                    
                                                                                                    
                                                                                                    
                                                                                                    
                                                                                                    
                                                                                                    
                                                                                                    
                                                                                                    
                                                                                                    
                                                                                                    
                                                                                                    
                                                                                                    
                                                                                                    
                                                                                                    
                                                                                                    
                                                                                                    
                                                                                                    
                           
<?xpacket end="w"?></metadata>
<defs>
    <style>
      .cls-1, .cls-2 {
        fill: #9c27b0;
      }

      .cls-1, .cls-11, .cls-13, .cls-14, .cls-15, .cls-16, .cls-3, .cls-5, .cls-7, .cls-9 {
        fill-rule: evenodd;
      }

      .cls-10, .cls-12, .cls-17, .cls-18, .cls-2, .cls-4, .cls-6, .cls-8 {
        stroke: #37474f;
        stroke-width: 1px;
      }

      .cls-3 {
        fill: #c8443c;
      }

      .cls-4 {
        fill: #f44336;
      }

      .cls-5, .cls-6 {
        fill: #00bcd4;
      }

      .cls-7 {
        fill: #479750;
      }

      .cls-8 {
        fill: #4caf50;
      }

      .cls-9 {
        fill: #bf285e;
      }

      .cls-10 {
        fill: #e91e63;
      }

      .cls-11, .cls-12 {
        fill: #795548;
      }

      .cls-13 {
        fill: #9e9e9e;
      }

      .cls-14 {
        fill: #ffeb3b;
      }

      .cls-15 {
        fill: #cddc39;
      }

      .cls-16, .cls-17 {
        fill: #ff9800;
      }

      .cls-18 {
        fill: #3f51b5;
      }

      .cls-19 {
        font-size: 10px;
      }

      .cls-19, .cls-20 {
        fill: #fff;
        font-family: "Maven Pro";
      }

      .cls-20 {
        font-size: 6px;
      }
    </style>
  </defs>
  <g id="Artboard_1" data-name="Artboard 1">
    <g id="Purple">
      <path class="cls-1" d="M108.563,16.243l0.874-.486,25,45-0.874.486Z" transform="translate(-100)"/>
      <path class="cls-1" d="M112.542,12.2l0.916-.4,22,50-0.916.4Z" transform="translate(-100)"/>
      <path class="cls-1" d="M116.53,10.172l0.94-.343,19,52-0.94.343Z" transform="translate(-100)"/>
      <path class="cls-1" d="M121.52,10.141l0.96-.282,15,51-0.96.282Z" transform="translate(-100)"/>
      <path class="cls-1" d="M128.01,12.193l0.98-.2,10,48.813-0.98.2Z" transform="translate(-100)"/>
      <circle class="cls-2" cx="9" cy="16" r="2"/>
      <circle id="Ellipse_3_copy" data-name="Ellipse 3 copy" class="cls-2" cx="13" cy="12" r="2"/>
      <circle id="Ellipse_3_copy_2" data-name="Ellipse 3 copy 2" class="cls-2" cx="18" cy="10" r="2"/>
      <circle id="Ellipse_3_copy_3" data-name="Ellipse 3 copy 3" class="cls-2" cx="23" cy="10" r="2"/>
      <circle id="Ellipse_3_copy_4" data-name="Ellipse 3 copy 4" class="cls-2" cx="28" cy="11" r="2"/>
    </g>
    <g id="Red">
      <path class="cls-3" d="M143.455,56.207l-0.91-.414,15-33,0.91,0.414Z" transform="translate(-100)"/>
      <path class="cls-3" d="M139.9,65.985l-0.89-.6L163.1,23.015l0.89,0.6Z" transform="translate(-100)"/>
      <path class="cls-3" d="M140.409,64.287l-0.818-.575,26-37,0.818,0.575Z" transform="translate(-100)"/>
      <path class="cls-3" d="M141.387,64.317l-0.774-.633,27-33,0.774,0.633Z" transform="translate(-100)"/>
      <circle class="cls-4" cx="58" cy="24" r="2"/>
      <circle id="Ellipse_4_copy" data-name="Ellipse 4 copy" class="cls-4" cx="63" cy="24" r="2"/>
      <circle id="Ellipse_4_copy_2" data-name="Ellipse 4 copy 2" class="cls-4" cx="67" cy="27" r="2"/>
      <circle id="Ellipse_4_copy_3" data-name="Ellipse 4 copy 3" class="cls-4" cx="69" cy="31" r="2"/>
    </g>
    <g id="Cyan">
      <path class="cls-5" d="M146.111,65.487l-0.222-.975,35-8,0.222,0.975Z" transform="translate(-100)"/>
      <path class="cls-5" d="M143.126,68L143,67l41.872-5L185,63Z" transform="translate(-100)"/>
      <path class="cls-5" d="M141.939,67.5l0.122-.993,41,5-0.122.993Z" transform="translate(-100)"/>
      <path class="cls-5" d="M139.87,68.483l0.26-.966,41,11-0.26.966Z" transform="translate(-100)"/>
      <path class="cls-5" d="M139.771,69.444l0.458-.889,31,16-0.458.889Z" transform="translate(-100)"/>
      <path class="cls-5" d="M137.6,68.3L138.4,67.7l14,19L151.6,87.3Z" transform="translate(-100)"/>
      <circle class="cls-6" cx="81" cy="57" r="2"/>
      <circle id="Ellipse_5_copy" data-name="Ellipse 5 copy" class="cls-6" cx="84" cy="63" r="2"/>
      <circle id="Ellipse_5_copy_2" data-name="Ellipse 5 copy 2" class="cls-6" cx="84" cy="73" r="2"/>
      <circle id="Ellipse_5_copy_3" data-name="Ellipse 5 copy 3" class="cls-6" cx="80" cy="80" r="2"/>
      <circle id="Ellipse_5_copy_4" data-name="Ellipse 5 copy 4" class="cls-6" cx="70" cy="86" r="2"/>
      <circle id="Ellipse_5_copy_5" data-name="Ellipse 5 copy 5" class="cls-6" cx="53" cy="88" r="2"/>
    </g>
    <g id="Green">
      <path class="cls-7" d="M138.5,54.057l-0.994-.113,5-44,0.994,0.113Z" transform="translate(-100)"/>
      <path class="cls-7" d="M149.844,8l1.146,0.186L138.156,66l-1.146-.186Z" transform="translate(-100)"/>
      <path class="cls-7" d="M139.794,62.013l-0.8-.337,15.207-49.689,0.8,0.337Z" transform="translate(-100)"/>
      <circle class="cls-8" cx="50" cy="9" r="2"/>
      <circle id="Ellipse_6_copy" data-name="Ellipse 6 copy" class="cls-8" cx="55" cy="12" r="2"/>
      <circle id="Ellipse_6_copy_2" data-name="Ellipse 6 copy 2" class="cls-8" cx="44" cy="10" r="2"/>
    </g>
    <g id="Pink">
      <path class="cls-9" d="M145.192,61.462l-0.384-.924,41-17,0.383,0.924Z" transform="translate(-100)"/>
      <path class="cls-9" d="M145.155,62.475l-0.31-.951,43-14,0.31,0.951Z" transform="translate(-100)"/>
      <circle class="cls-10" cx="86" cy="44" r="2"/>
      <circle id="Ellipse_7_copy" data-name="Ellipse 7 copy" class="cls-10" cx="87" cy="49" r="2"/>
    </g>
    <g id="Brown">
      <path class="cls-11" d="M101.981,54.827L102.553,54l31.466,6.173L133.447,61Z" transform="translate(-100)"/>
      <path class="cls-11" d="M138,62L137.8,63,101,60,101.2,59Z" transform="translate(-100)"/>
      <path class="cls-11" d="M137,63v1H101V63h36Z" transform="translate(-100)"/>
      <circle class="cls-12" cx="2" cy="54" r="2"/>
      <circle id="Ellipse_8_copy" data-name="Ellipse 8 copy" class="cls-12" cy="59" r="2"/>
      <circle id="Ellipse_8_copy_2" data-name="Ellipse 8 copy 2" class="cls-12" cx="1" cy="64" r="2"/>
    </g>
    <g id="Grey">
      <path class="cls-13" d="M129.776,65.553l0.448,0.894-48,24-0.447-.894Z" transform="translate(-100)"/>
      <path class="cls-13" d="M128.747,67.569l0.506,0.862-46,27-0.506-.862Z" transform="translate(-100)"/>
      <path class="cls-13" d="M133.723,67.584l0.554,0.832-45,30-0.555-.832Z" transform="translate(-100)"/>
      <path class="cls-13" d="M136.669,66.625l0.662,0.749-43,38-0.662-.75Z" transform="translate(-100)"/>
      <path class="cls-13" d="M138.31,67.994l0.7,0.7L98.69,111.006l-0.7-.7Z" transform="translate(-100)"/>
    </g>
    <g id="Yellow">
      <path class="cls-14" d="M135.5,70.95l1,0.1-3,30-1-.1Z" transform="translate(-100)"/>
      <path class="cls-14" d="M137,69h1v35h-1V69Z" transform="translate(-100)"/>
    </g>
    <g id="Lime">
      <path class="cls-15" d="M133.232,58.557l-0.464.886-44-23,0.463-.886Z" transform="translate(-100)"/>
      <path class="cls-15" d="M137,60.317l-0.694.694L89,29.683l0.695-.694Z" transform="translate(-100)"/>
    </g>
    <g id="Orange">
      <path class="cls-16" d="M143.287,62.41l-0.574-.819,50-35,0.574,0.819Z" transform="translate(-100)"/>
      <circle class="cls-17" cx="93" cy="28" r="2"/>
    </g>
    <circle class="cls-18" cx="37" cy="63" r="10"/>
    <text id="Vehicle_Crime" data-name="Vehicle Crime" class="cls-19" x="6" y="85">Vehicle Crime</text>
    <text id="Kings_Cross" data-name="Kings Cross" class="cls-20" x="40" y="42">Kings Cross</text>
    <text id="Holborn" class="cls-20" x="13" y="30">Holborn</text>
    <text id="Highgate" class="cls-20" x="34" y="21">Highgate</text>
    <text id="Frognal" class="cls-20" x="59" y="55">Frognal</text>
    <text id="Bloomsbury" class="cls-20" x="48" y="73">Bloomsbury</text>
    <text id="Primrose_Hill" data-name="Primrose Hill" class="cls-20" x="17" y="101">Primrose Hill</text>
    <text id="Covent_Garden" data-name="Covent Garden" class="cls-20" x="72" y="36">Covent Garden</text>
    <text id="Hampstead" class="cls-20" x="-10" y="47">Hampstead</text>
    <text id="St._Giles" data-name="St. Giles" class="cls-20" x="4.714" y="61.571">St. Giles</text>
  </g>
</svg>
