<svg xmlns="http://www.w3.org/2000/svg" width="100" height="100" viewBox="0 0 100 100">
  <metadata><?xpacket begin="﻿" id="W5M0MpCehiHzreSzNTczkc9d"?>
<x:xmpmeta xmlns:x="adobe:ns:meta/" x:xmptk="Adobe XMP Core 5.6-c138 79.159824, 2016/09/14-01:09:01        ">
   <rdf:RDF xmlns:rdf="http://www.w3.org/1999/02/22-rdf-syntax-ns#">
      <rdf:Description rdf:about=""/>
   </rdf:RDF>
</x:xmpmeta>
                                                                                                    
                                                                                                    
                                                                                                    
                                                                                                    
                                                                                                    
                                                                                                    
                                                                                                    
                                                                                                    
                                                                                                    
                                                                                                    
                                                                                                    
                                                                                                    
                                                                                                    
                                                                                                    
                                                                                                    
                                                                                                    
                                                                                                    
                                                                                                    
                                                                                                    
                                                                                                    
                           
<?xpacket end="w"?></metadata>
<defs>
    <style>
      .cls-1 {
        fill: #e91e63;
        stroke: #ad1457;
      }

      .cls-1, .cls-2 {
        stroke-width: 1px;
      }

      .cls-2, .cls-3 {
        fill: #009688;
      }

      .cls-2 {
        stroke: #00695c;
        fill-rule: evenodd;
      }
    </style>
  </defs>
  <g id="Artboard_1" data-name="Artboard 1">
    <circle id="Ellipse_1_copy_17" data-name="Ellipse 1 copy 17" class="cls-1" cx="49.5" cy="82.5" r="8.5"/>
    <circle id="Ellipse_1_copy_9" data-name="Ellipse 1 copy 9" class="cls-1" cx="44.5" cy="76.5" r="8.5"/>
    <circle id="Ellipse_1_copy_16" data-name="Ellipse 1 copy 16" class="cls-1" cx="55.5" cy="76.5" r="8.5"/>
    <circle id="Ellipse_1_copy_5" data-name="Ellipse 1 copy 5" class="cls-1" cx="37.5" cy="68.5" r="8.5"/>
    <circle id="Ellipse_1_copy_15" data-name="Ellipse 1 copy 15" class="cls-1" cx="47.5" cy="71.5" r="8.5"/>
    <circle id="Ellipse_1_copy_10" data-name="Ellipse 1 copy 10" class="cls-1" cx="61.5" cy="69.5" r="8.5"/>
    <circle id="Ellipse_1_copy_11" data-name="Ellipse 1 copy 11" class="cls-1" cx="66.5" cy="58.5" r="8.5"/>
    <circle id="Ellipse_1_copy_3" data-name="Ellipse 1 copy 3" class="cls-1" cx="32.5" cy="58.5" r="8.5"/>
    <circle id="Ellipse_1_copy_4" data-name="Ellipse 1 copy 4" class="cls-1" cx="35.5" cy="49.5" r="8.5"/>
    <circle id="Ellipse_1_copy_6" data-name="Ellipse 1 copy 6" class="cls-1" cx="39.5" cy="37.5" r="8.5"/>
    <circle id="Ellipse_1_copy" data-name="Ellipse 1 copy" class="cls-1" cx="49.5" cy="37.5" r="8.5"/>
    <circle id="Ellipse_1_copy_2" data-name="Ellipse 1 copy 2" class="cls-1" cx="59.5" cy="37.5" r="8.5"/>
    <circle id="Ellipse_1_copy_13" data-name="Ellipse 1 copy 13" class="cls-1" cx="43.5" cy="63.5" r="8.5"/>
    <circle id="Ellipse_1_copy_14" data-name="Ellipse 1 copy 14" class="cls-1" cx="56.5" cy="62.5" r="8.5"/>
    <circle id="Ellipse_1_copy_7" data-name="Ellipse 1 copy 7" class="cls-1" cx="44.5" cy="52.5" r="8.5"/>
    <circle id="Ellipse_1_copy_12" data-name="Ellipse 1 copy 12" class="cls-1" cx="64.5" cy="49.5" r="8.5"/>
    <circle id="Ellipse_1_copy_8" data-name="Ellipse 1 copy 8" class="cls-1" cx="55.5" cy="52.5" r="8.5"/>
    <path class="cls-2" d="M56.536,20.978a32.1,32.1,0,0,0-.129,4.7C60.654,24.261,67.8,24.674,69.377,15c-0.958,12.453-8.788,12.157-12.319,14.762,0.834,2.688,1.6,5.666,6.243,10.992-7.029-4.3-10.5-6.589-14.186-8.291-4.579,1.765-8.957,2.529-14.3,9.35,3.252-6.95,5.06-9.363,7.909-11.831-3.448-1.215-7.544-2.244-9.671-4.449a76.7,76.7,0,0,0,14.657.886c2.837-1.771,5.956-3.394,8.821-5.437h0Z"/>
    <path class="cls-2" d="M43.932,20.779c2.24,1.146,4.7,2.072,7.326,3.576,3.6-.651,7.023-0.945,10.1-2.467-1.235,2.364-2.812,3.628-4.94,5.281,3.084,1.657,6.774,2.927,10,4.258-5.42-.621-9.9-0.156-14.218-0.075-2.547,3.7-5.657,7.644-7.647,22.636C44.367,39.379,44.515,35.8,44.5,31.481c-4.348.093-8.868-.013-14.489,1.82,5.485-2.673,10.178-5.72,14.323-7.134-0.174-2.292-.4-3.569-0.4-5.388h0Z"/>
    <path class="cls-2" d="M56.313,9.793c-0.206-.042-0.064-0.23.978-0.365A19.055,19.055,0,0,1,63,9.6C51.089,15.526,51.3,22.634,51.23,29H48q-0.013-.617-0.012-1.234t0.023-1.232c0.029-.821.091-1.64,0.2-2.457a19.12,19.12,0,0,1,1.284-4.857,28.941,28.941,0,0,1,6.82-9.426h0Z"/>
    <rect class="cls-3" x="45" y="27" width="7" height="3"/>
  </g>
</svg>
