<svg xmlns="http://www.w3.org/2000/svg" width="100" height="100" viewBox="0 0 100 100">
  <metadata><?xpacket begin="﻿" id="W5M0MpCehiHzreSzNTczkc9d"?>
<x:xmpmeta xmlns:x="adobe:ns:meta/" x:xmptk="Adobe XMP Core 5.6-c138 79.159824, 2016/09/14-01:09:01        ">
   <rdf:RDF xmlns:rdf="http://www.w3.org/1999/02/22-rdf-syntax-ns#">
      <rdf:Description rdf:about=""/>
   </rdf:RDF>
</x:xmpmeta>
                                                                                                    
                                                                                                    
                                                                                                    
                                                                                                    
                                                                                                    
                                                                                                    
                                                                                                    
                                                                                                    
                                                                                                    
                                                                                                    
                                                                                                    
                                                                                                    
                                                                                                    
                                                                                                    
                                                                                                    
                                                                                                    
                                                                                                    
                                                                                                    
                                                                                                    
                                                                                                    
                           
<?xpacket end="w"?></metadata>
<defs>
    <style>
      .cls-1 {
        fill: #03a9f4;
      }

      .cls-2, .cls-24 {
        fill: #fff;
      }

      .cls-3 {
        fill: #b3e5fc;
      }

      .cls-10, .cls-11, .cls-12, .cls-13, .cls-14, .cls-15, .cls-16, .cls-17, .cls-18, .cls-19, .cls-20, .cls-21, .cls-22, .cls-23, .cls-24, .cls-3, .cls-4, .cls-5, .cls-6, .cls-7, .cls-8, .cls-9 {
        fill-rule: evenodd;
      }

      .cls-4 {
        fill: #29b6f6;
      }

      .cls-5 {
        fill: #039be5;
      }

      .cls-6 {
        fill: #01579b;
      }

      .cls-7 {
        fill: #e1f5fe;
      }

      .cls-8 {
        fill: #81d4fa;
      }

      .cls-9 {
        fill: #80cbc4;
      }

      .cls-10 {
        fill: #009688;
      }

      .cls-11 {
        fill: #00695c;
      }

      .cls-12 {
        fill: #4db6ac;
      }

      .cls-13 {
        fill: #b2dfdb;
      }

      .cls-14 {
        fill: #00897b;
      }

      .cls-15 {
        fill: #fffde7;
      }

      .cls-16 {
        fill: #fff176;
      }

      .cls-17 {
        fill: #f9a825;
      }

      .cls-18 {
        fill: #fff9c4;
      }

      .cls-19 {
        fill: #ffeb3b;
      }

      .cls-20 {
        fill: #e65100;
      }

      .cls-21 {
        fill: #f57c00;
      }

      .cls-22 {
        fill: #ffe0b2;
      }

      .cls-23 {
        fill: #ff9800;
      }

      .cls-25 {
        font-size: 5px;
      }

      .cls-25, .cls-26 {
        fill: #37474f;
        font-family: "Alegreya Sans SC";
      }

      .cls-26 {
        font-size: 8px;
        font-weight: 300;
      }
    </style>
  </defs>
  <g id="Artboard_1" data-name="Artboard 1">
    <rect class="cls-1" x="23" y="23" width="54" height="54"/>
    <rect id="Rectangle_1_copy" data-name="Rectangle 1 copy" class="cls-2" x="24" y="24" width="52" height="52"/>
    <path class="cls-3" d="M39.625,23.75c2.563-.031,4.469.031,6.281,0.094a59.1,59.1,0,0,1,3.663,7.38l-5.483,2.437C42.868,30.92,41.649,28.179,39.625,23.75Z"/>
    <path id="Rectangle_4_copy" data-name="Rectangle 4 copy" class="cls-4" d="M45,35.567C45.585,35.4,46.121,35.2,46.627,35s0.979-.415,1.437-0.624c0.914-.421,1.759-0.83,2.617-1.229C52.3,36.323,53.806,40.689,55,43.517c-1.78.892-3.567,1.681-5.356,2.488C48.457,43.36,47.23,40.385,45,35.567h0Z"/>
    <path id="Rectangle_4_copy_2" data-name="Rectangle 4 copy 2" class="cls-5" d="M30,26.567a23.343,23.343,0,0,0,2.278-.843c0.707-.3,1.371-0.614,2.011-0.923,1.279-.622,2.462-1.228,3.665-1.818,2.267,4.7,4.375,11.162,6.043,15.345-2.493,1.32-4.993,2.487-7.5,3.68-1.657-3.913-3.376-8.314-6.5-15.441h0Z"/>
    <path id="Rectangle_4_copy_3" data-name="Rectangle 4 copy 3" class="cls-6" d="M37,43.567a23.343,23.343,0,0,0,2.278-.843c0.707-.3,1.371-0.613,2.011-0.923,1.279-.622,2.462-1.228,3.665-1.818,2.267,4.7,4.375,11.162,6.043,15.345-2.493,1.32-4.993,2.487-7.5,3.68-1.657-3.913-3.376-8.314-6.5-15.441h0Z"/>
    <path class="cls-7" d="M23,30.257l5.771-2.25L38.01,51.76l-5.771,2.25Z"/>
    <path class="cls-8" d="M24.082,41.507c0.082,0.251,0,0-.082-2.507,2.19,5.85,2.951,8.858,5,12.118-3.417.659-4.167,1.154-4.917,1.883C24.082,48.193,24.082,44.85,24.082,41.507Z"/>
    <path class="cls-6" d="M24.067,23.354A94.519,94.519,0,0,1,34,23.127a0.958,0.958,0,0,1-.695.011c-4.145,2.279-5.583,2.5-9.282,4.049-0.555-.582-0.293-3.963.042-3.833h0Z"/>
    <path class="cls-9" d="M38,49.526c3.176-1.071,6.292-2.4,9.146-3.276,2.288,4.107,4.391,10.787,6.422,15.071-2.488.45-4.52,2.546-7.188,4.221C43.076,59.7,40.263,53.772,38,49.526h0Z"/>
    <path class="cls-10" d="M32.262,54.578l4.48-2.22,4,8.064-4.48,2.22Z"/>
    <path id="Rectangle_9_copy" data-name="Rectangle 9 copy" class="cls-11" d="M37.013,64.189c1.648-.663,3.155-1.457,4.743-2.175,1.434,2.655,3.17,5.588,4.235,7.9-1.241,1.046-2.206,2.31-3.52,3.243-1.832-2.98-4.033-6.317-5.457-8.968h0Z"/>
    <path class="cls-12" d="M23.275,58.755q3.417-1.837,7-3.721c2.569,4.728,5.125,9.459,7.71,14.183L30.747,73c-2.6-4.718-5.049-9.48-7.473-14.248h0Z"/>
    <path class="cls-13" d="M31.867,75.355c2.484-1.294,4.8-2.621,7.111-3.947a40.53,40.53,0,0,1,2.428,4.623,25.079,25.079,0,0,1-9.469.031C31.969,76.063,31.842,76.48,31.867,75.355Z"/>
    <path class="cls-14" d="M24.064,67.072a1.159,1.159,0,0,0,.321-1.081c0.917,2.63,1.979,7.2,4.614,9.807a24.505,24.505,0,0,0-4.83.2C23.785,74.185,24.294,70.432,24.064,67.072Z"/>
    <path class="cls-15" d="M54.406,37.054l2.7-1.308,3.487,7.2-2.7,1.308Z"/>
    <path class="cls-16" d="M53.587,23.643a24.965,24.965,0,0,0,7.994-.312c2.457,5.318,5.671,12.2,8.8,18.973q-3.637.969-7.051,2.209c-2.825-6.431-5.884-13.007-9.749-20.871h0Z"/>
    <path class="cls-17" d="M72.142,23.077a3.366,3.366,0,0,0,2.972.062c1.16,0.689.847,2.4,1.8,3.576-0.425,1.779-.064,3.457-0.338,4.3-1.386-1.788-2.975-5.625-4.433-7.937h0Z"/>
    <path id="Rectangle_15_copy" data-name="Rectangle 15 copy" class="cls-18" d="M68.985,34.044A35.468,35.468,0,0,0,73.7,32.155c2.019,3.261,1.841,5.111,2.838,7.382A9.544,9.544,0,0,1,72.5,41.774c-1.088-2.327-2.161-5.1-3.52-7.731h0Z"/>
    <path id="Rectangle_15_copy_2" data-name="Rectangle 15 copy 2" class="cls-19" d="M64,23.932a26.5,26.5,0,0,0,5.327-.465A41.89,41.89,0,0,1,73.016,30.1c-1.681.639-3.364,1.265-5.046,1.9-1.338-2.8-2.578-5.1-3.972-8.064h0Z"/>
    <path class="cls-20" d="M42.754,72.788c3.411-3.289,19.663-8.674,25.8-12.018,1.992,3.972,4.381,9.215,7.414,14.883-8.087,1.8-24.169-.487-33.032,1.127-1.862.618-.717-0.064-0.182-3.991h0Z"/>
    <path class="cls-21" d="M50,55.479a28.551,28.551,0,0,0,6.388-4.625c1.892,3.889,3.7,7.088,5.173,10.338-2,.993-6.655,2.614-9.667,3.815A31.374,31.374,0,0,0,50,55.479h0Z"/>
    <path class="cls-22" d="M56.861,46.028l3.722-1.758,6.834,14.467L63.7,60.5Z"/>
    <path class="cls-23" d="M63.986,45.726c3.574-1.544,7.1-3.206,9.9-4.741,3.255,7.248,1.8,10.8,2.419,11.788,0.194,1.794.329,3.57,0.433,5.28,0.052,0.855.095,1.694,0.132,2.511s0.067,1.614.09,2.385a34.357,34.357,0,0,1-.364,7.834c-6.1-10.9-8.263-17.911-12.612-25.056h0Z"/>
    <path class="cls-24" d="M46,23.994c3.621-.054,6.691.167,7.588,0.143a46.1,46.1,0,0,1,3.459,12.292c0.126,0.942.241,1.877,0.331,2.8q0.067,0.693.114,1.376t0.063,1.356q0.016,0.672-.008,1.331t-0.092,1.3a19.861,19.861,0,0,1-.434,2.517C51,49.965,51.4,49.2,51.1,49.4c0.521-8.641,1.05-16.809-5.1-25.4h0Z"/>
    <path id="Rectangle_2_copy" data-name="Rectangle 2 copy" class="cls-24" d="M40.008,75.765a70,70,0,0,1,7.912.249,66.432,66.432,0,0,0,6.945-16.23c0.733-2.652,1.4-5.337,1.939-7.939q0.2-.974.364-1.925t0.293-1.866c0.172-1.222.3-2.393,0.383-3.5-5.137-2.823-5.25-2.054-5.427-2.242-2.192,11.3-3.88,21.758-12.41,33.457h0Z"/>
    <path class="cls-24" d="M23.994,52.436c17.564-8.23,33.774-11.8,51.8-16.455,0.033,1.99.095,4.059,0.193,6.178C58.41,47.141,43.22,50.726,24.335,60.009a40.674,40.674,0,0,0-.341-7.572h0Z"/>
    <rect class="cls-2" x="23" y="23" width="2" height="54"/>
    <rect id="Rectangle_20_copy" data-name="Rectangle 20 copy" class="cls-2" x="23" y="23" width="54" height="2"/>
    <rect id="Rectangle_20_copy_2" data-name="Rectangle 20 copy 2" class="cls-2" x="75" y="23" width="2" height="54"/>
    <rect id="Rectangle_20_copy_3" data-name="Rectangle 20 copy 3" class="cls-2" x="23" y="75" width="54" height="2"/>
    <text id="point" class="cls-25" transform="matrix(0.948, -0.317, 0.317, 0.948, 37.638, 51.612)">point</text>
    <text id="point_copy" data-name="point copy" class="cls-25" transform="matrix(0.967, -0.256, 0.256, 0.967, 57.447, 45.283)">point</text>
    <text id="_2" data-name="2" class="cls-26" transform="matrix(0.962, -0.274, 0.274, 0.962, 51.602, 47.599)">2</text>
  </g>
</svg>
