<svg xmlns="http://www.w3.org/2000/svg" width="100" height="100" viewBox="0 0 100 100">
  <metadata><?xpacket begin="﻿" id="W5M0MpCehiHzreSzNTczkc9d"?>
<x:xmpmeta xmlns:x="adobe:ns:meta/" x:xmptk="Adobe XMP Core 5.6-c138 79.159824, 2016/09/14-01:09:01        ">
   <rdf:RDF xmlns:rdf="http://www.w3.org/1999/02/22-rdf-syntax-ns#">
      <rdf:Description rdf:about=""/>
   </rdf:RDF>
</x:xmpmeta>
                                                                                                    
                                                                                                    
                                                                                                    
                                                                                                    
                                                                                                    
                                                                                                    
                                                                                                    
                                                                                                    
                                                                                                    
                                                                                                    
                                                                                                    
                                                                                                    
                                                                                                    
                                                                                                    
                                                                                                    
                                                                                                    
                                                                                                    
                                                                                                    
                                                                                                    
                                                                                                    
                           
<?xpacket end="w"?></metadata>
<defs>
    <style>
      .cls-1, .cls-2, .cls-3 {
        fill-rule: evenodd;
      }

      .cls-2 {
        fill: #e0e0e0;
      }

      .cls-2, .cls-3 {
        stroke: #000;
      }

      .cls-2, .cls-3, .cls-4 {
        stroke-width: 1px;
      }

      .cls-3 {
        fill: #0072bc;
      }

      .cls-4 {
        stroke: #ebebeb;
      }

      .cls-5 {
        fill: #fff;
      }
    </style>
  </defs>
  <g id="Artboard_1" data-name="Artboard 1">
    <path class="cls-1" d="M39.99,17.584l0.9-.591L51.01,43.416l-0.9.591Z"/>
    <path class="cls-1" d="M60.06,17.011L61,17.371,46.94,54.989,46,54.629Z"/>
    <path class="cls-1" d="M46,54h1V83H46V54Z"/>
    <path class="cls-1" d="M60.918,17.493l0.164-.986,18,3-0.164.986Z"/>
    <path id="Shape_4_copy" data-name="Shape 4 copy" class="cls-1" d="M40.082,17.493l-0.164-.986-18,3,0.164,0.986Z"/>
    <path class="cls-1" d="M41,18V17H60v1H41Z"/>
    <path id="Shape_5_copy" data-name="Shape 5 copy" class="cls-1" d="M41,20V19H60v1H41Z"/>
    <rect x="47" y="20" width="7" height="5"/>
    <path id="Shape_6_copy_2" data-name="Shape 6 copy 2" class="cls-1" d="M22.012,20.449c0.191-.141.4-0.291,0.62-0.446C22.094,31.594,25.543,41.729,28,51.562c-0.216.156-.426,0.305-0.629,0.449-3.194-9.467-5.633-20.157-5.36-31.561h0Z"/>
    <path id="Shape_6_copy_3" data-name="Shape 6 copy 3" class="cls-1" d="M78.988,20.449c-0.191-.141-0.4-0.291-0.62-0.446C78.906,31.594,75.457,41.729,73,51.562c0.215,0.156.426,0.305,0.629,0.449,3.194-9.467,5.633-20.157,5.36-31.561h0Z"/>
    <path class="cls-1" d="M27,52h1V83H27V52Z"/>
    <path id="Shape_6_copy" data-name="Shape 6 copy" class="cls-1" d="M73,52h1V83H73V52Z"/>
    <path class="cls-2" d="M28.008,18.916a32.55,32.55,0,0,0,5.646-1.379c0.707,13.912,1.005,25.5,6.331,38.419-2.084.008-3.242-.009-4.1,0-0.838,0-1.308.02-1.608,0.032-0.142.007-.248,0.011-0.329,0.009a0.485,0.485,0,0,1-.171-0.026,0.185,0.185,0,0,1-.075-0.209c-1.228-5.97-2.677-12.024-3.748-18.131-0.539-3.054-.992-6.118-1.33-9.222q-0.253-2.328-.414-4.7-0.079-1.185-.131-2.383t-0.072-2.412h0Z"/>
    <path id="Rectangle_4_copy" data-name="Rectangle 4 copy" class="cls-2" d="M72.992,18.916a32.547,32.547,0,0,1-5.646-1.379c-0.707,13.912-1,25.5-6.331,38.419,2.084,0.008,3.241-.009,4.1,0,0.838,0,1.308.02,1.608,0.032,0.141,0.007.248,0.011,0.329,0.009a0.484,0.484,0,0,0,.171-0.026,0.185,0.185,0,0,0,.075-0.209c1.228-5.97,2.677-12.024,3.748-18.131,0.539-3.054.992-6.118,1.33-9.222q0.254-2.328.414-4.7,0.079-1.185.131-2.383t0.072-2.412h0Z"/>
    <path class="cls-2" d="M28,55c6.275,0.745,12.657.894,18.965,1.079,0.04,0.4-.062,1.464.02,3.89-1.511.033-3.053,0.039-4.618,0.013S39.217,59.9,37.619,59.8c-3.2-.185-6.43-0.53-9.619-0.966V55h0Z"/>
    <path id="Rectangle_6_copy_2" data-name="Rectangle 6 copy 2" class="cls-2" d="M28,70c6.275,0.745,12.657.894,18.965,1.079,0.04,0.4-.062,1.464.02,3.889-1.511.033-3.053,0.039-4.618,0.013S39.217,74.9,37.619,74.8c-3.2-.185-6.43-0.53-9.619-0.966V70h0Z"/>
    <path id="Rectangle_6_copy" data-name="Rectangle 6 copy" class="cls-2" d="M73,55c-8.92.745-17.995,0.894-26.963,1.079-0.057.4,0.087,1.464-.029,3.89,2.148,0.033,4.34.039,6.565,0.013s4.48-.084,6.751-0.179c4.544-.185,9.142-0.53,13.676-0.966V55h0Z"/>
    <path id="Rectangle_6_copy_3" data-name="Rectangle 6 copy 3" class="cls-2" d="M73,70c-8.92.745-17.995,0.894-26.963,1.079-0.057.4,0.087,1.464-.029,3.889,2.148,0.033,4.34.039,6.565,0.013s4.48-.084,6.751-0.179c4.544-.185,9.142-0.53,13.676-0.966V70h0Z"/>
    <g id="US_Sensor" data-name="US Sensor">
      <path class="cls-3" d="M25.809,22.35l11.98-.688,0.4,6.989-11.98.688Z"/>
      <circle class="cls-4" cx="29.5" cy="25.656" r="1.5"/>
      <circle id="Ellipse_1_copy" data-name="Ellipse 1 copy" class="cls-4" cx="34.5" cy="25.344" r="1.5"/>
      <circle class="cls-5" cx="37.313" cy="22.188" r="0.5"/>
      <circle id="Ellipse_2_copy" data-name="Ellipse 2 copy" class="cls-5" cx="26.688" cy="28.813" r="0.5"/>
    </g>
    <g id="US_Sensor_copy" data-name="US Sensor copy">
      <path class="cls-3" d="M64.216,21.653L76.2,22.359l-0.411,6.988L63.8,28.641Z"/>
      <circle class="cls-4" cx="67.5" cy="25.344" r="1.5"/>
      <circle id="Ellipse_1_copy-2" data-name="Ellipse 1 copy" class="cls-4" cx="72.5" cy="25.656" r="1.5"/>
      <circle class="cls-5" cx="75.656" cy="22.828" r="0.5"/>
      <circle id="Ellipse_2_copy-2" data-name="Ellipse 2 copy" class="cls-5" cx="64.344" cy="28.172" r="0.5"/>
    </g>
    <path class="cls-1" d="M27.02,83.081a9.141,9.141,0,0,1,.118-1.124c6.3,2.445,13.083,3.089,19.869-.762-0.1.213-.181,0.426-0.249,0.6s-0.124.32-.172,0.444-0.088.222-.124,0.308l-0.051.123-0.024.057-0.023.055c-3.5,1.58-6.91,1.552-9.975,1.8-3.162-.2-6.219-0.319-9.369-1.5h0Z"/>
    <path id="Shape_7_copy_2" data-name="Shape 7 copy 2" class="cls-1" d="M46.02,83.167a9.759,9.759,0,0,1,.093-1.081c4.137,1.77,8.918,2.309,13.817,2.324,4.875-.192,10.02-0.62,13.935-3.4,0.05,0.364.1,0.658,0.113,0.867a2.824,2.824,0,0,1,0,.473,1.626,1.626,0,0,1-.047.273c-0.01.037-.02,0.07-0.03,0.1l-0.016.046-0.017.045c-4.989,1.846-10.521,2.042-14.741,2.14A50.8,50.8,0,0,1,46.02,83.167h0Z"/>
  </g>
</svg>
