<svg xmlns="http://www.w3.org/2000/svg" width="100" height="100" viewBox="0 0 100 100">
  <metadata><?xpacket begin="﻿" id="W5M0MpCehiHzreSzNTczkc9d"?>
<x:xmpmeta xmlns:x="adobe:ns:meta/" x:xmptk="Adobe XMP Core 5.6-c138 79.159824, 2016/09/14-01:09:01        ">
   <rdf:RDF xmlns:rdf="http://www.w3.org/1999/02/22-rdf-syntax-ns#">
      <rdf:Description rdf:about=""/>
   </rdf:RDF>
</x:xmpmeta>
                                                                                                    
                                                                                                    
                                                                                                    
                                                                                                    
                                                                                                    
                                                                                                    
                                                                                                    
                                                                                                    
                                                                                                    
                                                                                                    
                                                                                                    
                                                                                                    
                                                                                                    
                                                                                                    
                                                                                                    
                                                                                                    
                                                                                                    
                                                                                                    
                                                                                                    
                                                                                                    
                           
<?xpacket end="w"?></metadata>
<defs>
    <style>
      .cls-1, .cls-2, .cls-4 {
        fill-rule: evenodd;
      }

      .cls-2, .cls-3 {
        fill: #e0e0e0;
      }

      .cls-2, .cls-3, .cls-4 {
        stroke: #000;
      }

      .cls-2, .cls-3, .cls-4, .cls-5, .cls-7 {
        stroke-width: 1px;
      }

      .cls-4 {
        fill: #0072bc;
      }

      .cls-5 {
        stroke: #ebebeb;
      }

      .cls-6 {
        fill: #fff;
      }

      .cls-7 {
        stroke: #8560a8;
      }
    </style>
  </defs>
  <g id="Artboard_1" data-name="Artboard 1">
    <path class="cls-1" d="M39.99,39.584l0.9-.591L51.01,65.416l-0.9.591Z"/>
    <path class="cls-1" d="M60.06,39.011L61,39.371,46.94,76.989,46,76.63Z"/>
    <path class="cls-1" d="M46,76h1v26H46V76Z"/>
    <path class="cls-1" d="M60.918,39.493l0.164-.986,18,3-0.164.986Z"/>
    <path id="Shape_4_copy" data-name="Shape 4 copy" class="cls-1" d="M40.082,39.493l-0.164-.986-18,3,0.164,0.986Z"/>
    <path class="cls-1" d="M41,40V39H60v1H41Z"/>
    <path id="Shape_5_copy" data-name="Shape 5 copy" class="cls-1" d="M41,42V41H60v1H41Z"/>
    <rect x="47" y="42" width="7" height="5"/>
    <path id="Shape_6_copy_2" data-name="Shape 6 copy 2" class="cls-1" d="M22.012,42.449c0.191-.141.4-0.291,0.62-0.446C22.094,53.594,25.543,63.729,28,73.562c-0.216.156-.426,0.305-0.629,0.449-3.194-9.467-5.633-20.157-5.36-31.561h0Z"/>
    <path id="Shape_6_copy_3" data-name="Shape 6 copy 3" class="cls-1" d="M78.988,42.449c-0.191-.141-0.4-0.291-0.62-0.446C78.906,53.594,75.457,63.729,73,73.562c0.215,0.156.426,0.305,0.629,0.449,3.194-9.467,5.633-20.157,5.36-31.561h0Z"/>
    <path class="cls-1" d="M27,74h1v26H27V74Z"/>
    <path id="Shape_6_copy" data-name="Shape 6 copy" class="cls-1" d="M73,74h1v26H73V74Z"/>
    <path class="cls-2" d="M28.008,40.916a32.55,32.55,0,0,0,5.646-1.378c0.707,13.912,1.005,25.5,6.331,38.419-2.084.008-3.242-.009-4.1,0-0.838,0-1.308.02-1.608,0.032-0.142.007-.248,0.011-0.329,0.009a0.485,0.485,0,0,1-.171-0.026,0.185,0.185,0,0,1-.075-0.209c-1.228-5.969-2.677-12.024-3.748-18.131-0.539-3.054-.992-6.118-1.33-9.222q-0.253-2.328-.414-4.7-0.079-1.185-.131-2.383t-0.072-2.412h0Z"/>
    <path id="Rectangle_4_copy" data-name="Rectangle 4 copy" class="cls-2" d="M72.992,40.916a32.55,32.55,0,0,1-5.646-1.378c-0.707,13.912-1,25.5-6.331,38.419,2.084,0.008,3.241-.009,4.1,0,0.838,0,1.308.02,1.608,0.032,0.141,0.007.248,0.011,0.329,0.009a0.485,0.485,0,0,0,.171-0.026,0.185,0.185,0,0,0,.075-0.209c1.228-5.969,2.677-12.024,3.748-18.131,0.539-3.054.992-6.118,1.33-9.222q0.254-2.328.414-4.7,0.079-1.185.131-2.383t0.072-2.412h0Z"/>
    <rect class="cls-3" x="28" y="77" width="18" height="5"/>
    <rect id="Rectangle_3_copy_2" data-name="Rectangle 3 copy 2" class="cls-3" x="28" y="91" width="18" height="5"/>
    <rect id="Rectangle_3_copy" data-name="Rectangle 3 copy" class="cls-3" x="47" y="77" width="26" height="5"/>
    <rect id="Rectangle_3_copy_3" data-name="Rectangle 3 copy 3" class="cls-3" x="47" y="91" width="26" height="5"/>
    <g id="US_Sensor" data-name="US Sensor">
      <path class="cls-4" d="M25.809,48.35l11.98-.688,0.4,6.988-11.98.688Z"/>
      <circle class="cls-5" cx="29.5" cy="51.656" r="1.5"/>
      <circle id="Ellipse_1_copy" data-name="Ellipse 1 copy" class="cls-5" cx="34.5" cy="51.344" r="1.5"/>
      <circle class="cls-6" cx="37.313" cy="48.188" r="0.5"/>
      <circle id="Ellipse_2_copy" data-name="Ellipse 2 copy" class="cls-6" cx="26.688" cy="54.813" r="0.5"/>
    </g>
    <g id="US_Sensor_copy" data-name="US Sensor copy">
      <path class="cls-4" d="M64.216,47.653L76.2,48.359l-0.411,6.988L63.8,54.641Z"/>
      <circle class="cls-5" cx="67.5" cy="51.344" r="1.5"/>
      <circle id="Ellipse_1_copy-2" data-name="Ellipse 1 copy" class="cls-5" cx="72.5" cy="51.656" r="1.5"/>
      <circle class="cls-6" cx="75.656" cy="48.828" r="0.5"/>
      <circle id="Ellipse_2_copy-2" data-name="Ellipse 2 copy" class="cls-6" cx="64.344" cy="54.172" r="0.5"/>
    </g>
    <circle class="cls-7" cx="31" cy="44" r="2"/>
    <circle id="Ellipse_3_copy" data-name="Ellipse 3 copy" class="cls-7" cx="70" cy="44" r="2"/>
  </g>
</svg>
